inDegrees=no
num_controls=7
num_derivatives=13
num_iterations=128
num_multipliers=7
num_parameters=0
num_slacks=7
num_states=26
objective=5.632503
objective_accelerations=0.248796
objective_balance=0.041128
objective_effort=0.359969
objective_height=4.894992
objective_ligament=0.087618
solver_duration=1183.039482
status=Solve_Succeeded
success=true
DataType=double
version=3
OpenSimVersion=4.4-2022-07-23-0e9fedc
endheader
time	/jointset/ground_pelvis/pelvis_tilt/value	/jointset/ground_pelvis/pelvis_tx/value	/jointset/ground_pelvis/pelvis_ty/value	/jointset/hip_r/hip_flexion_r/value	/jointset/hip_r/hip_adduction_r/value	/jointset/hip_r/hip_rotation_r/value	/jointset/back/lumbar_extension/value	/jointset/patellofemoral_r/patellar_flexion_r/value	/jointset/knee_r/knee_flexion_r/value	/jointset/knee_r/knee_adduction_r/value	/jointset/knee_r/knee_rotation_r/value	/jointset/ankle_r/ankle_angle_r/value	/jointset/subtalar_r/subtalar_angle_r/value	/jointset/ground_pelvis/pelvis_tilt/speed	/jointset/ground_pelvis/pelvis_tx/speed	/jointset/ground_pelvis/pelvis_ty/speed	/jointset/hip_r/hip_flexion_r/speed	/jointset/hip_r/hip_adduction_r/speed	/jointset/hip_r/hip_rotation_r/speed	/jointset/back/lumbar_extension/speed	/jointset/patellofemoral_r/patellar_flexion_r/speed	/jointset/knee_r/knee_flexion_r/speed	/jointset/knee_r/knee_adduction_r/speed	/jointset/knee_r/knee_rotation_r/speed	/jointset/ankle_r/ankle_angle_r/speed	/jointset/subtalar_r/subtalar_angle_r/speed	/forceset/tau_hip_flexion_r	/forceset/tau_hip_adduction_r	/forceset/tau_hip_rotation_r	/forceset/tau_knee_flexion_r	/forceset/tau_ankle_angle_r	/forceset/tau_subtalar_angle_r	/forceset/tau_lumbar_extension	lambda_cid13_p0	lambda_cid14_p0	lambda_cid14_p1	lambda_cid14_p2	lambda_cid14_p3	lambda_cid14_p4	lambda_cid14_p5	/jointset/ground_pelvis/pelvis_tilt/accel	/jointset/ground_pelvis/pelvis_tx/accel	/jointset/ground_pelvis/pelvis_ty/accel	/jointset/hip_r/hip_flexion_r/accel	/jointset/hip_r/hip_adduction_r/accel	/jointset/hip_r/hip_rotation_r/accel	/jointset/back/lumbar_extension/accel	/jointset/patellofemoral_r/patellar_flexion_r/accel	/jointset/knee_r/knee_flexion_r/accel	/jointset/knee_r/knee_adduction_r/accel	/jointset/knee_r/knee_rotation_r/accel	/jointset/ankle_r/ankle_angle_r/accel	/jointset/subtalar_r/subtalar_angle_r/accel	gamma_cid13_p0	gamma_cid14_p0	gamma_cid14_p1	gamma_cid14_p2	gamma_cid14_p3	gamma_cid14_p4	gamma_cid14_p5
1.5	-0.03353457362076916	0.0980798091840504	0.9009495634113159	0.4625245968731209	-0.2205765486164117	-0.1741407950667203	-0.2553747916031727	0.5156341700218702	0.5156341700217688	0.04755172772746075	0.1743458179682991	0.2543982552050597	0.06734893625409283	0.02449945617022291	0.04413652144417796	0.1998727273319222	-0.8982171610857054	0.01390061189414432	-0.217785122393078	0.6928466044460625	-1.406261121521752	-1.406261121521793	0.2678737452081141	0.0009235860399907263	-0.6151598518112982	-0.1653579239722504	-0.01189681725312408	-0.01640904961656334	0.001291521725550392	-0.2947943763548078	0.02666769578182562	-0.01431843922700291	0.08493648356217337	-39.94310477055194	-33.85410256999901	-7.484184884283949	-3.671883470292632	7.528228358041105	-672.1792390791873	57.04629612072826	-0.06620419789499718	0.06526766720767364	-0.3202969113330677	-0.3465158508754118	-0.06669243512096898	-0.4569989569550479	0.8121981732937715	-0.6896424197126174	-0.6896424197126203	0.3543494959717299	-0.006502849120545747	-0.3903054811807516	-0.06095471758146499	8.137348768321749e-08	7.672337531448182e-08	-6.134850999550842e-07	8.257645952465125e-07	2.774741207530012e-08	6.94989884679295e-08	-8.989905329939985e-07
1.51	-0.03329316079958296	0.0985243537366773	0.9029318171430197	0.4535265489947099	-0.220441530590637	-0.1763409691468927	-0.2484064208841706	0.501539152314162	0.5015391523140199	0.0502494710353355	0.1743550338300705	0.2482277940111607	0.06569164746287051	0.02377889174161059	0.04476280853868508	0.1965384092958152	-0.9012621685904038	0.01310030174416074	-0.2222340902121363	0.7007284846406386	-1.412537758186739	-1.412537758186764	0.271657854977237	0.000914913245354306	-0.618847761592731	-0.1660763740585708	-0.007966398809450975	-0.01824243466658444	0.0007554104355589491	-0.2923161839305444	0.03147876611439895	-0.01521359282033525	0.0810453694197479	-40.38499554365023	-32.26660131967445	-7.522039822030564	-3.749174874618462	6.956340665427215	-670.3593412758372	57.18070528439562	-0.07560688976529377	0.05987924929347126	-0.3459213268576766	-0.2639470164943903	-0.08701976865001236	-0.4363578461544156	0.761324732580842	-0.5659938505721938	-0.5659938505699778	0.3878423718764679	0.001394206518300368	-0.345324923179061	-0.07378631888394492	8.98230685490216e-08	8.204670104922678e-08	-7.106685747743781e-07	8.625651315951468e-07	3.284710590305457e-08	8.758330534096086e-08	-9.751815265822561e-07
1.52	-0.0330590784876127	0.09897487516399102	0.904879543278941	0.4445019602779666	-0.2203145795590924	-0.1785851353356109	-0.2413622030052243	0.4873875043276155	0.4873875043275454	0.05298453557179526	0.1743640517041329	0.242022995480133	0.06402787493783919	0.02303335433628321	0.04533189638153857	0.1929672081754615	-0.9035253287442047	0.01228721304566602	-0.226583544102126	0.7080160364369967	-1.417587177278955	-1.417587177278966	0.2753379909261218	0.0008839884968617203	-0.6220273192363258	-0.1666546707339549	-0.004035980365843285	-0.02007581971663903	0.0002192991456802493	-0.289837991506301	0.03628983644696432	-0.01610874641371563	0.07715425527727302	-40.79286092351526	-30.6869411349358	-7.558155134265884	-3.830299436601687	6.380761997348829	-668.6721228962307	57.37702614826483	-0.07119879324008142	0.05382781687880809	-0.3676735281824259	-0.1901463806962357	-0.06924814482334163	-0.4370961711412045	0.6933324936490468	-0.4441989051591501	-0.4441989051591503	0.3335547319245119	-0.01095323989194436	-0.2886350536111374	-0.03292403539377795	9.810259638398943e-08	8.703468791814105e-08	-8.046690941450207e-07	8.953570638750188e-07	3.784466219595779e-08	1.052900486867151e-07	-1.045980018977618e-06
1.53	-0.03283246950679476	0.09943080404825232	0.9067904380536026	0.4354584578258139	-0.2201958639454732	-0.1808724617214693	-0.2342482212958311	0.4731914183345299	0.4731914183344286	0.05575591508623808	0.1743728249596919	0.2357889173466992	0.06235895858611572	0.02228473610345671	0.04584410548097788	0.1891764870272456	-0.905044509785415	0.01145373035819908	-0.2308637998575367	0.7146781352251576	-1.421422204821456	-1.421422204821423	0.278919127329522	0.0008670065292005716	-0.6247009642000153	-0.1671052545883693	-3.376364440255676e-05	-0.02206859452900536	-0.0003115380432445577	-0.2874923260419012	0.04130263014155067	-0.01710072568001948	0.07322831338350766	-41.16586822230241	-29.052525267976	-7.631555295569484	-3.899972730044325	5.779588271825058	-667.0614884054405	57.54626525915644	-0.07724129363323226	0.04846028366999851	-0.3900339956057219	-0.1131966634327135	-0.09065259865710469	-0.4206360718080461	0.6373230359368621	-0.3220043094547563	-0.3220043094482312	0.3675146378724573	0.002536176936709351	-0.2436082771613306	-0.04766107993222311	1.062014428736938e-07	9.166637724211018e-08	-8.952877233514713e-07	9.23889854331831e-07	4.273369735808159e-08	1.225956201597375e-07	-1.111048978855528e-06
1.54	-0.03261345629941963	0.09989156358894387	0.9086623730992898	0.4264036850236851	-0.220085534012303	-0.1832020198236958	-0.2270706837056595	0.4589632121398463	0.4589632121398104	0.05856253027337317	0.1743813497659948	0.2295307269517424	0.06068622929195447	0.02151419965759247	0.04629802766758986	0.1851752623805496	-0.9057793987306094	0.01061007695278988	-0.235029887375633	0.7207272125949511	-1.424011217590333	-1.424011217590256	0.2823851254659152	0.0008342986471443554	-0.6268497715402235	-0.1674172592214619	0.003968453076954605	-0.02406136934141149	-0.0008423752321620682	-0.2851466605775247	0.04631542383612712	-0.0180927049463777	0.06930237148968084	-41.50351821989751	-27.42407001942941	-7.702654696892408	-3.973833516892565	5.170391628048596	-665.5565913903821	57.77803011389629	-0.07558243584975503	0.04217043431527191	-0.4097742278784685	-0.0332879614934455	-0.07128228841193746	-0.4142625236781858	0.5707282099744724	-0.1949959504348765	-0.1949959504348763	0.3105270785235513	-0.01409842277113489	-0.1836675289127827	-0.005208191128997191	1.144862818862961e-07	9.671491074015697e-08	-9.858046409118412e-07	9.532994966776265e-07	4.726247588710477e-08	1.422395468863863e-07	-1.175526290239126e-06
1.55	-0.03240213637119665	0.1003565555235309	0.9104933110529856	0.4173452972730091	-0.2199837231291367	-0.1855727793527628	-0.2198359130750855	0.4447152551794792	0.4447152551793961	0.06140326869730495	0.1743895881600182	0.2232536207330044	0.05901101630992191	0.02074596326079296	0.04668850259054908	0.1809812298457744	-0.9057624724689441	0.009750969993968838	-0.2390966155165458	0.7261186033207968	-1.425367204447959	-1.42536720444792	0.2857412233879976	0.0008062008360913063	-0.628482775751441	-0.1676018669425193	0.008026537132465419	-0.02617023494500719	-0.001372942621633265	-0.2829000167484867	0.05141380891671223	-0.01919563101254777	0.06534582213298402	-41.80560873115876	-25.78144831203216	-7.824325037130246	-4.034071834572187	4.584180843824806	-664.1556673627433	57.95623344505575	-0.07801008870026102	0.03571826035770489	-0.4288471457355983	0.03954458511444616	-0.09333405440970344	-0.398886009555579	0.5070979709537012	-0.07398009029113335	-0.07398009029691217	0.3448696032720331	0.001925171646525373	-0.1397885625518934	-0.02162538819452863	1.229854166318026e-07	1.022437212213802e-07	-1.076204368966944e-06	9.837194248955113e-07	5.137617612146858e-08	1.645776655356916e-07	-1.239321919661884e-06
1.56	-0.03219861197641617	0.1008250986551587	0.9122813828054428	0.4082911511179255	-0.2198905251464991	-0.1879834077732909	-0.2125504778438523	0.4304601223431134	0.4304601223430945	0.06427691179128786	0.1743973637023323	0.2169628501330856	0.05733464958555862	0.01995509297993261	0.04700826707573657	0.1766020221328206	-0.9049310796025727	0.008887496843451918	-0.2430036656677762	0.7308601327293603	-1.425446392780176	-1.425446392780176	0.2889660594789445	0.0007417283018049435	-0.6295826477756625	-0.1676480076875938	0.0120846211878906	-0.02827910054864397	-0.001903510010974221	-0.2806533729194727	0.05651219399728898	-0.02029855707877414	0.06138927277622077	-42.07226274425661	-24.14250556137365	-7.942971446708919	-4.098982691531052	3.984339449157513	-662.8280184363839	58.19706147903746	-0.08010921266408493	0.02802834676292568	-0.4468092635142073	0.1296053594474113	-0.07215552675126642	-0.3823269257416008	0.4407559465168915	0.06036375464611352	0.06036375464611384	0.2842747122969052	-0.0213733674179783	-0.07704109151140129	0.02248520406803411	1.333435442720581e-07	1.077611291365193e-07	-1.188848106545399e-06	1.013219426962513e-06	5.73963220704386e-08	1.885144846883602e-07	-1.310975639740553e-06
